<svg id="home" xmlns="http://www.w3.org/2000/svg" width="24" height="23.985" viewBox="0 0 24 23.985">
  <path id="Subtraction_1" data-name="Subtraction 1" d="M-6733,5371.985h-18a3,3,0,0,1-3-3v-9.816a3,3,0,0,1,.878-2.123l7.585-7.585A4.975,4.975,0,0,1-6742,5348a4.98,4.98,0,0,1,3.537,1.462l7.584,7.585a3,3,0,0,1,.879,2.123v9.816A3,3,0,0,1-6733,5371.985Zm-9-21.982a2.993,2.993,0,0,0-2.123.876l-7.583,7.583a.993.993,0,0,0-.293.707v9.816a1,1,0,0,0,1,1h1V5370h16v-.015h1a1,1,0,0,0,1-1v-9.816a1.008,1.008,0,0,0-.293-.706l-7.585-7.585A2.988,2.988,0,0,0-6742,5350Z" transform="translate(6754 -5348)" fill="#4c48e3"/>
</svg>
