<svg xmlns="http://www.w3.org/2000/svg" width="19" height="21.999" viewBox="0 0 19 21.999">
  <path id="bell" d="M19.825,12.522l-1.66-6.265A8.2,8.2,0,0,0,10.109.005,8.252,8.252,0,0,0,2.375,6.691L1.09,12.754a4.755,4.755,0,0,0,.856,3.862,4.293,4.293,0,0,0,3.407,1.715h.973A4.425,4.425,0,0,0,10.606,22a4.425,4.425,0,0,0,4.28-3.671h.732a4.3,4.3,0,0,0,3.477-1.81,4.763,4.763,0,0,0,.731-4Zm-9.219,7.642a2.632,2.632,0,0,1-2.46-1.833h4.919a2.632,2.632,0,0,1-2.46,1.833Zm7.1-4.752A2.56,2.56,0,0,1,15.617,16.5H5.353A2.576,2.576,0,0,1,3.31,15.469,2.853,2.853,0,0,1,2.8,13.151L4.08,7.088a6.481,6.481,0,0,1,6.075-5.251,6.44,6.44,0,0,1,6.328,4.91l1.66,6.265a2.836,2.836,0,0,1-.438,2.4Z" transform="translate(-0.986 -0.002)" fill="#4c48e3"/>
</svg>
